<svg xmlns="http://www.w3.org/2000/svg" width="32.813" height="32.813"><path d="M29.106 24.424a.781.781 0 0 1-.781.781h-3.119v3.119a.782.782 0 0 1-1.562 0v-4.682h4.682c.43.001.78.351.78.782zM4.673 9.352h4.682V4.671a.781.781 0 0 0-1.563 0V7.79H4.673a.781.781 0 0 0 0 1.562zM3.708 24.24c0 .431.35.781.781.781H7.61v3.12a.78.78 0 1 0 1.562 0v-4.683H4.489a.782.782 0 0 0-.781.782zM28.923 8.39a.78.78 0 0 0-.781-.781h-3.121V4.488a.781.781 0 0 0-1.562 0v4.684h4.684a.783.783 0 0 0 .78-.782zm3.889 8.017c0 .431-.35.781-.781.781h-3.426l1.876 1.873a.784.784 0 0 1 0 1.107.791.791 0 0 1-.554.228.773.773 0 0 1-.55-.228l-2.979-2.98h-2.995a6.995 6.995 0 0 1-1.728 3.875h5.609a.781.781 0 0 1 0 1.562h-4.666v4.667a.782.782 0 0 1-1.562 0v-5.61a7 7 0 0 1-3.866 1.719v2.995l2.978 2.98c.306.305.306.8 0 1.104a.78.78 0 0 1-1.104 0l-1.874-1.876v3.427a.781.781 0 0 1-1.562 0v-3.427l-1.875 1.876a.78.78 0 1 1-1.105-1.104l2.979-2.98v-2.995a7.016 7.016 0 0 1-3.865-1.717v5.608a.781.781 0 0 1-1.562 0v-4.667H5.535a.781.781 0 0 1 0-1.562h5.607a7.022 7.022 0 0 1-1.728-3.875H6.417l-2.979 2.979a.784.784 0 0 1-1.104 0 .781.781 0 0 1 0-1.106l1.874-1.873H.782a.78.78 0 1 1-.001-1.563h3.426L2.333 13.75a.783.783 0 0 1 1.105-1.106l2.979 2.979h2.995a6.996 6.996 0 0 1 1.72-3.866H5.533a.781.781 0 0 1 0-1.562h4.666V5.528a.781.781 0 0 1 1.562 0v5.599a6.995 6.995 0 0 1 3.865-1.717V6.415l-2.978-2.979a.782.782 0 0 1 1.105-1.105l1.874 1.875V.781a.78.78 0 1 1 1.562 0v3.426l1.875-1.875a.777.777 0 0 1 1.104 0 .78.78 0 0 1 0 1.105l-2.978 2.98v2.996a7.021 7.021 0 0 1 3.866 1.718V5.532a.78.78 0 1 1 1.562 0v4.666h4.666a.78.78 0 1 1 0 1.562h-5.599a7 7 0 0 1 1.718 3.866h2.995l2.979-2.979a.783.783 0 0 1 1.106 1.106l-1.876 1.874h3.427a.777.777 0 0 1 .778.78zm-11.006-.782a5.457 5.457 0 0 0-4.618-4.617c-.257-.037-.514-.079-.781-.079-.268 0-.524.042-.781.079a5.458 5.458 0 0 0-4.618 4.617c-.038.257-.079.514-.079.781s.041.522.079.781a5.455 5.455 0 0 0 4.618 4.616c.257.036.514.079.781.079s.524-.043.781-.079a5.457 5.457 0 0 0 4.618-4.616c.037-.259.079-.515.079-.781s-.043-.524-.079-.781z" fill="{color}"/></svg>