<svg xmlns="http://www.w3.org/2000/svg" width="31.25" height="31.25"><path d="M20.581 1.176l-3.914 3.915V0h1.041v2.576L19.845.439l.736.737zm-1.615 9.069l.351.217 6.623-6.625-.736-.737-6.048 6.051a7.141 7.141 0 0 0-1.449-.6v-.082l5.082-5.082-.737-.737-5.387 5.388v1.33l.402.093a6.213 6.213 0 0 1 1.899.784zm2.041 2.043c.368.585.63 1.224.786 1.893l.094.403h1.028l5.171-5.173-.736-.737-4.699 4.701a7.523 7.523 0 0 0-.549-1.28l6.048-6.05-.737-.735-6.622 6.625.216.353zm7.368 1.254l1.921-1.923-.736-.735-3.699 3.7h5.39v-1.042h-2.876zm1.185 6.826l.736-.736-1.923-1.923h2.877v-1.042h-5.389l3.699 3.701zm-6.915-2.498l4.705 4.707.736-.736-5.171-5.174h-1.03l-.096.4a6.24 6.24 0 0 1-.795 1.883l-.22.353 6.639 6.641.736-.736-6.061-6.062c.227-.414.414-.84.557-1.276zm-3.7 3.125a6.241 6.241 0 0 1-1.88.794l-.399.096v1.33l5.387 5.387.736-.736-5.082-5.082v-.089a7.322 7.322 0 0 0 1.434-.605l6.061 6.062.736-.736-6.641-6.641-.352.22zM16.667 31.25h1.041v-2.576l2.137 2.137.736-.737-3.914-3.914v5.09zm-5.26-.439l2.134-2.137v2.576h1.042v-5.093l-3.913 3.916.737.738zm.897-9.816l-.352-.222-6.642 6.641.736.736 6.062-6.062c.456.254.937.456 1.433.605v.089l-5.08 5.082.736.736 5.387-5.387v-1.33l-.4-.096a6.175 6.175 0 0 1-1.88-.792zm-2.046-2.047a6.315 6.315 0 0 1-.798-1.883l-.096-.4H8.335l-5.172 5.174.737.736 4.706-4.71c.145.441.329.865.556 1.276L3.1 25.202l.736.736 6.643-6.643-.221-.347zM0 16.667v1.042h2.876L.954 19.632l.736.736 3.698-3.701H0zm1.69-5.783l-.736.735 1.921 1.923H0v1.042h5.39l-3.7-3.7zm6.916 2.498L3.9 8.674l-.736.737 5.172 5.173h1.029l.096-.4a6.15 6.15 0 0 1 .798-1.881l.222-.352L3.837 5.31l-.736.736 6.062 6.06a7.268 7.268 0 0 0-.557 1.276zm-.145-9.996l5.08 5.082v.088c-.497.15-.977.352-1.433.606L6.047 3.101l-.736.737 6.643 6.643.352-.222a6.223 6.223 0 0 1 1.88-.797l.4-.095v-1.33L9.2 2.649l-.739.737zm5.081-.81L11.408.439l-.736.737 3.913 3.917V0h-1.042v2.576zm-1.757 14.831a4.2 4.2 0 0 0 2.06 2.058l.739.338v-3.136h-3.138l.339.74zm0-3.562l-.337.738h3.135v-3.136l-.739.338a4.223 4.223 0 0 0-2.059 2.06zm7.679 3.561l.338-.739h-3.135v3.136l.738-.338a4.204 4.204 0 0 0 2.059-2.059zm0-3.561a4.198 4.198 0 0 0-2.059-2.06l-.738-.34v3.138h3.135l-.338-.738z" fill="{color}"/></svg>