<svg xmlns="http://www.w3.org/2000/svg" width="36.283" height="36.283"><path d="M35.531 17.391h-3.09l.845-1.464a.748.748 0 1 0-1.297-.75l-1.276 2.214H28.61l2.515-4.354a.751.751 0 0 0-.272-1.024.75.75 0 0 0-1.024.274l-2.948 5.104h-2.023a6.751 6.751 0 0 0-2.713-4.684l1.019-1.76 5.896-.002a.75.75 0 0 0 0-1.5l-5.029.002 1.051-1.82 2.557.002a.75.75 0 0 0 0-1.5l-1.689-.002 1.545-2.676a.75.75 0 1 0-1.302-.75l-1.547 2.676-.844-1.463a.749.749 0 1 0-1.297.75l1.278 2.213-1.051 1.818-2.514-4.354a.75.75 0 0 0-1.298.75l2.946 5.104-1.016 1.758a6.692 6.692 0 0 0-2.706-.57 6.74 6.74 0 0 0-2.707.568l-1.013-1.754 2.946-5.105a.75.75 0 0 0-1.298-.75L13.56 8.697l-1.05-1.818 1.278-2.217a.749.749 0 0 0-1.298-.75l-.845 1.465-1.551-2.678a.75.75 0 0 0-1.024-.273.748.748 0 0 0-.274 1.023l1.545 2.678H8.652a.75.75 0 0 0 0 1.5h2.556l1.05 1.818H7.231a.75.75 0 0 0 0 1.5h5.894l1.017 1.762a6.755 6.755 0 0 0-2.712 4.684H9.406l-2.95-5.104a.75.75 0 1 0-1.299.75l2.516 4.354H5.569l-1.277-2.213a.75.75 0 0 0-1.298.75l.845 1.463H.75a.75.75 0 0 0 0 1.5h3.09l-.845 1.465a.747.747 0 0 0 .275 1.022.75.75 0 0 0 .374.103.75.75 0 0 0 .65-.375l1.277-2.215h2.103l-2.516 4.354a.75.75 0 0 0 1.299.75l2.949-5.104h2.024a6.761 6.761 0 0 0 2.712 4.685l-1.017 1.762H7.232a.75.75 0 0 0 0 1.5h5.026l-1.05 1.818H8.651a.75.75 0 0 0 0 1.5h1.69l-1.545 2.676a.75.75 0 0 0 1.299.75l1.546-2.676.846 1.465a.755.755 0 0 0 .65.375.737.737 0 0 0 .375-.103.747.747 0 0 0 .274-1.022l-1.279-2.215 1.05-1.82 2.515 4.354a.75.75 0 0 0 1.299-.75l-2.947-5.104 1.013-1.756a6.72 6.72 0 0 0 5.415 0l1.014 1.756-2.947 5.104a.75.75 0 0 0 1.298.75l2.515-4.354 1.053 1.82-1.277 2.213a.75.75 0 0 0 1.298.75l.844-1.463 1.545 2.678c.141.24.393.375.65.375a.75.75 0 0 0 .649-1.125l-1.548-2.678h1.689a.75.75 0 0 0 0-1.5h-2.557l-1.051-1.82 5.029.002a.75.75 0 0 0 0-1.5l-5.896-.002-1.019-1.76a6.75 6.75 0 0 0 2.711-4.685h2.023l2.947 5.104a.753.753 0 0 0 1.025.273.749.749 0 0 0 .272-1.023l-2.515-4.354h2.104l1.279 2.215a.75.75 0 0 0 .649.375c.127 0 .256-.03.375-.103a.748.748 0 0 0 .273-1.022l-.848-1.465h3.092a.75.75 0 0 0 .003-1.5zm-12.136.75c0 .257-.041.502-.076.75a5.223 5.223 0 0 1-1.943 3.358 5.242 5.242 0 0 1-1.291.766 5.224 5.224 0 0 1-1.949.384 5.157 5.157 0 0 1-3.239-1.15 5.22 5.22 0 0 1-1.943-3.358c-.036-.247-.076-.493-.076-.75s.04-.503.076-.75a5.22 5.22 0 0 1 1.944-3.359c.393-.312.82-.576 1.291-.765a5.219 5.219 0 0 1 1.948-.384c.69 0 1.344.142 1.948.384.471.188.898.454 1.291.765a5.222 5.222 0 0 1 1.943 3.359c.035.247.076.493.076.75z" fill="{color}"/></svg>
